PathFileType	4	(X/Y/Z)	C:\Users\Basilio\Documents\Thesis Gigler\squatting_fais\c3dfiles\076\SLS_back_pre5\markers_experimental.trc
DataRate	CameraRate	NumFrames	NumMarkers	Units	OrigDataRate	OrigDataStartFrame	OrigNumFrames
200.000000	200.000000	4	61	mm	200.000000	591	1578
Frame#	Time	FHD			LBHD			RBHD			C7			T10			CLAV			LSHO			LUUPA			LMUPA			LDUPA			LLEP			LMEP			LRAD			LUL			LRFIN			RSHO			RUPA1			RMUPA			RDUPA			RLEP			RMEP			RRAD			RUL			RUFIN			LASI			RASI			USACR			LSACR			RSACR			LTHI1			LTHI2			LTHI3			LTHI4			LLFC			LMFC			LTIB1			LTIB2			LTIB3			LTIB4			LLMAL			LMMAL			LHEE			LMT1			LMT2			LMT5			RTHI			RTHI2			RTHI3			RTHI4			RLFC			RMFC			RTIB1			RTIB2			RTIB3			RTIB4			RLMAL			RMMAL			RHEE			RMT1			RMT2			RMT5			
		X1	Y1	Z1	X2	Y2	Z2	X3	Y3	Z3	X4	Y4	Z4	X5	Y5	Z5	X6	Y6	Z6	X7	Y7	Z7	X8	Y8	Z8	X9	Y9	Z9	X10	Y10	Z10	X11	Y11	Z11	X12	Y12	Z12	X13	Y13	Z13	X14	Y14	Z14	X15	Y15	Z15	X16	Y16	Z16	X17	Y17	Z17	X18	Y18	Z18	X19	Y19	Z19	X20	Y20	Z20	X21	Y21	Z21	X22	Y22	Z22	X23	Y23	Z23	X24	Y24	Z24	X25	Y25	Z25	X26	Y26	Z26	X27	Y27	Z27	X28	Y28	Z28	X29	Y29	Z29	X30	Y30	Z30	X31	Y31	Z31	X32	Y32	Z32	X33	Y33	Z33	X34	Y34	Z34	X35	Y35	Z35	X36	Y36	Z36	X37	Y37	Z37	X38	Y38	Z38	X39	Y39	Z39	X40	Y40	Z40	X41	Y41	Z41	X42	Y42	Z42	X43	Y43	Z43	X44	Y44	Z44	X45	Y45	Z45	X46	Y46	Z46	X47	Y47	Z47	X48	Y48	Z48	X49	Y49	Z49	X50	Y50	Z50	X51	Y51	Z51	X52	Y52	Z52	X53	Y53	Z53	X54	Y54	Z54	X55	Y55	Z55	X56	Y56	Z56	X57	Y57	Z57	X58	Y58	Z58	X59	Y59	Z59	X60	Y60	Z60	X61	Y61	Z61	

592	2.955	-35.94254684448243	1354.754150390625	-1067.4013671875	-179.5093841552735	1296.363037109375	-1167.640502929688	-169.7962493896485	1305.703247070313	-1015.69775390625	-239.6881256103516	1227.239135742188	-1078.550048828125	-441.583709716797	993.7264404296877	-1021.394653320313	-158.4122924804688	1100.514526367188	-1073.602294921875	-186.9492492675782	1168.221435546875	-1223.584228515625	-78.78560638427736	1093.098266601563	-1326.834228515625	-36.37041473388673	1101.838745117188	-1301.87255859375	-20.45184707641602	1072.524047851563	-1354.047241210938	20.97891998291016	1041.634155273438	-1375.240600585938	26.46345710754395	981.5793457031252	-1323.292236328125	274.4884033203126	1031.210815429688	-1361.4501953125	263.4161987304688	1027.640380859375	-1426.247314453125	355.3132324218751	1042.574096679688	-1377.988037109375	-177.0993194580078	1187.147827148438	-939.4664306640627	-67.62168121337892	1125.370239257813	-824.1192626953127	-29.08379364013673	1146.279541015625	-846.2144165039065	-1.801002144813538	1105.237426757813	-809.7619628906252	64.94174194335939	1095.195434570313	-804.5327758789065	63.15175628662111	1036.111083984375	-853.9916992187502	308.2728881835938	1079.197265625	-858.4241943359377	302.6531372070313	1081.068237304688	-792.027526855469	383.1126098632813	1095.903076171875	-846.9191894531252	-386.8770446777345	773.6658935546877	-1115.120483398438	-380.9304199218751	756.0553588867189	-902.0760498046877	-508.203094482422	896.2360839843752	-1000.843505859375	-531.0146484375001	874.298767089844	-1028.552856445313	-526.7855224609376	870.5045166015627	-971.5913085937502	-426.6704406738282	674.4736938476564	-1193.94677734375	-353.2105712890626	632.7987670898439	-1196.70654296875	-316.1389770507813	661.5650634765626	-1178.87548828125	-342.2831726074219	571.9458618164064	-1189.656616210938	-247.1087036132813	450.8604736328126	-1162.372436523438	-220.0140228271485	463.0773925781251	-1052.899536132813	-233.2405700683594	319.1227111816407	-1069.787353515625	-278.3014221191407	263.8955383300782	-1121.323364257813	-246.4683380126954	265.0420837402344	-1086.781372070313	-284.6499023437501	207.5552673339844	-1038.29345703125	-381.2407836914063	102.4067687988282	-1065.600830078125	-346.3179931640626	124.6301803588867	-989.236999511719	-440.9859313964845	97.43222808837893	-1009.714721679688	-239.1572570800782	57.00329208374025	-997.131286621094	-234.0858764648438	49.93083572387697	-1035.427001953125	-259.1498413085938	41.44169235229493	-1083.644775390625	-447.7400207519532	536.7932739257814	-824.9209594726565	-402.2871093750001	485.0509033203126	-824.0203857421877	-369.6134338378907	489.5292968750001	-834.871276855469	-425.9270324707032	405.342498779297	-841.0311279296877	-426.4094848632814	365.8572692871094	-852.3071899414065	-407.2295227050782	357.0448913574219	-968.6793212890627	-528.5732421875001	303.9695129394532	-894.8677978515627	-613.3009033203126	371.4357299804688	-884.387145996094	-613.0817871093751	325.7699279785157	-895.4106445312502	-649.9605102539064	314.3432006835938	-940.5410156250002	-793.2673339843752	369.3196105957032	-933.2452392578127	-760.4938964843751	351.9470520019532	-1011.047302246094	-802.2858886718752	431.1441345214845	-976.456726074219	-828.1163330078127	233.6841125488282	-1027.81396484375	-836.914733886719	221.2928161621094	-984.1458740234377	-867.180847167969	245.9718780517579	-935.1394653320315	
593	2.96	-35.33061218261719	1353.744995117188	-1067.57177734375	-179.0526123046875	1295.406127929688	-1167.93896484375	-169.2162322998047	1304.727416992188	-1015.807373046875	-239.2442169189454	1226.44677734375	-1078.65283203125	-441.4190673828126	993.3610839843752	-1021.404418945313	-158.1565093994141	1099.5263671875	-1073.6474609375	-186.864990234375	1167.376586914063	-1223.71044921875	-78.22834777832033	1092.226318359375	-1326.886474609375	-37.37754058837891	1101.413208007813	-1301.989990234375	-20.05636787414551	1071.75830078125	-1353.94873046875	21.37968635559082	1040.72509765625	-1375.223266601563	26.89694595336915	980.6236572265627	-1323.168090820313	274.6850280761719	1030.670776367188	-1361.3271484375	263.5292968750001	1026.528686523438	-1426.177612304688	355.6334533691407	1041.586181640625	-1377.953125	-176.6355285644532	1186.3828125	-939.742858886719	-67.1665496826172	1124.760864257813	-824.3035278320315	-28.61220932006837	1145.65576171875	-846.473815917969	-1.366125345230103	1104.679809570313	-809.8729248046877	65.43899536132814	1094.75927734375	-804.790466308594	63.67500686645509	1035.611938476563	-854.1815185546877	308.7957458496094	1078.762573242188	-858.6265869140627	303.1658935546876	1080.652465820313	-792.2755126953127	383.5380859375001	1095.574951171875	-847.002136230469	-387.083953857422	773.049987792969	-1114.995239257813	-381.1107788085938	755.6175537109376	-901.9473876953127	-508.1895141601564	895.9182739257815	-1000.780517578125	-531.0391235351564	873.9590454101565	-1028.429931640625	-526.7959594726564	870.227233886719	-971.5582275390627	-426.5793762207032	674.2761840820314	-1193.934814453125	-353.1436462402344	632.7491455078126	-1196.578735351563	-316.2162475585938	661.5153808593751	-1178.672119140625	-342.0370788574219	571.9581909179689	-1189.285278320313	-246.8759918212891	450.8365783691407	-1162.173461914063	-219.855209350586	463.0657958984376	-1052.648071289063	-233.1063385009766	319.1401672363282	-1069.620971679688	-278.1404724121094	264.0030517578126	-1121.231689453125	-246.3659210205079	265.0195312500001	-1086.653930664063	-284.5591125488282	207.5443572998047	-1038.251586914063	-381.2040710449219	102.4148025512696	-1065.570434570313	-346.2792663574219	124.6207885742188	-989.2191162109377	-441.019256591797	97.443473815918	-1009.707153320313	-239.1729736328126	56.97763442993165	-997.0894775390627	-234.1056671142579	49.94153213500978	-1035.42333984375	-259.1430969238282	41.45623397827149	-1083.670166015625	-448.0869750976564	536.4428100585939	-824.663269042969	-402.5393066406251	484.7953491210939	-823.7352294921877	-370.0138854980469	489.2078552246095	-834.648132324219	-426.3048706054689	405.0230102539064	-840.772155761719	-426.8682250976564	365.4651489257813	-851.8812255859377	-407.5320739746095	356.6449584960938	-968.3887939453127	-528.9325561523439	303.6698303222657	-894.5427856445315	-613.6826171875001	371.3270263671876	-884.0283203125002	-613.4275512695314	325.6911010742188	-895.0218505859377	-650.4169921875001	314.0748901367188	-940.1712036132815	-793.607360839844	369.2890930175782	-932.8679199218752	-760.9384765625001	351.8700256347657	-1010.595031738281	-802.638610839844	431.0702209472657	-976.0954589843752	-828.3044433593752	233.6646270751954	-1027.572509765625	-837.4356079101565	221.2577362060547	-983.6402587890627	-867.5877075195315	245.8931732177735	-934.635192871094	
594	2.965	-34.71347427368165	1352.66357421875	-1067.792724609375	-178.1770782470703	1294.511108398438	-1167.78466796875	-168.6434631347657	1303.759155273438	-1015.81640625	-238.6045684814454	1225.69189453125	-1078.746337890625	-441.2717590332032	992.961608886719	-1021.343200683594	-157.5277709960938	1098.413330078125	-1073.632446289063	-186.4352569580078	1166.516479492188	-1223.667846679688	-77.86122131347658	1091.254638671875	-1326.786254882813	-35.80131912231446	1100.225708007813	-1301.75341796875	-20.06164741516114	1070.840454101563	-1353.914184570313	21.94383049011231	1039.908813476563	-1375.019897460938	27.16174697875977	979.780944824219	-1323.26611328125	275.1335144042969	1029.639770507813	-1361.21240234375	264.0249633789063	1025.592895507813	-1426.117309570313	356.4910278320313	1040.60400390625	-1377.813232421875	-176.1618957519532	1185.598266601563	-939.889343261719	-66.72790527343751	1123.880249023438	-824.7522583007815	-28.139066696167	1144.84326171875	-846.786804199219	-0.8172257542610171	1104.050048828125	-810.0776977539065	65.90438842773439	1094.095336914063	-805.075866699219	64.35730743408205	1035.244018554688	-854.6369628906252	309.5192260742188	1078.118041992188	-858.4238281250002	303.6631774902344	1080.18994140625	-792.3384399414065	384.2688598632814	1095.194458007813	-846.899841308594	-387.220428466797	772.4841308593752	-1114.854125976563	-381.3044433593751	755.1454467773439	-901.7612304687502	-508.2867431640626	895.5756835937502	-1000.791442871094	-531.0889282226564	873.6486816406252	-1028.37939453125	-526.8428955078126	869.9304199218752	-971.5736083984377	-426.5957336425782	674.0404663085939	-1193.788940429688	-353.1323852539063	632.6618041992189	-1196.40869140625	-316.1809692382813	661.3763427734376	-1178.448608398438	-341.9787292480469	571.8472900390626	-1189.185546875	-246.759017944336	450.8590087890626	-1161.953369140625	-219.726547241211	463.0306701660157	-1052.469482421875	-233.0589599609376	319.1139221191407	-1069.397094726563	-278.0847778320313	263.8615112304688	-1121.119262695313	-246.2431030273438	264.9775390625001	-1086.49755859375	-284.5382995605469	207.5098419189454	-1038.12890625	-381.0585937500001	102.4426193237305	-1065.504760742188	-346.2913513183594	124.561637878418	-989.1400146484377	-440.9871215820314	97.40556335449222	-1009.668762207031	-239.2248992919922	56.93253326416017	-997.048278808594	-234.0916595458985	49.83258056640626	-1035.359375	-259.1853942871094	41.4850082397461	-1083.652709960938	-448.4641113281251	536.1758422851564	-824.4190673828127	-402.8267517089845	484.4913635253907	-823.434020996094	-370.2975158691407	488.8785095214845	-834.4597167968752	-426.6757812500001	404.6398315429689	-840.501892089844	-427.2635192871095	365.0984497070313	-851.6794433593752	-407.9916992187501	356.1426086425782	-967.9597167968752	-529.3436279296876	303.3748168945313	-894.2100219726565	-614.0314941406251	371.0649414062501	-883.6956787109377	-613.8608398437501	325.3731689453126	-894.6647949218752	-650.8624267578126	313.8575134277344	-939.8031005859377	-793.9480590820315	369.2772216796876	-932.4343872070315	-761.4050903320314	351.7846679687501	-1010.167114257813	-802.9882812500002	431.0011291503907	-975.6990356445315	-828.7949829101565	233.6358032226563	-1027.062255859375	-837.8925781250002	221.2225494384766	-983.126159667969	-867.9968261718752	245.9133300781251	-934.0671997070315	
595	2.97	-34.01692962646485	1351.52294921875	-1067.875122070313	-177.8806304931641	1293.450317382813	-1167.942993164063	-168.0437316894532	1302.726440429688	-1015.928161621094	-238.0952301025391	1224.849243164063	-1078.816528320313	-441.1428833007814	992.4224243164065	-1021.293273925781	-157.0654754638672	1097.549194335938	-1073.7216796875	-185.8283081054688	1165.539306640625	-1223.603393554688	-77.40060424804689	1090.469848632813	-1326.6884765625	-35.7818832397461	1099.34619140625	-1301.674560546875	-19.43604278564453	1069.981079101563	-1353.865844726563	23.07480621337891	1038.996826171875	-1374.757934570313	27.6120834350586	978.9859008789065	-1323.06591796875	275.4210510253907	1028.679077148438	-1361.120849609375	264.5137939453126	1024.7998046875	-1426.076171875	356.9400939941407	1039.6181640625	-1377.59619140625	-175.682601928711	1184.7119140625	-939.973571777344	-66.13940429687501	1123.3583984375	-825.0380859375002	-27.60801887512208	1144.33056640625	-846.9364013671877	-0.4192078709602357	1103.411987304688	-810.195007324219	66.4445037841797	1093.540283203125	-805.1953735351565	64.90553283691408	1034.5244140625	-854.7445068359377	310.1768493652344	1077.54833984375	-858.3584594726565	304.0503234863282	1079.516967773438	-792.5210571289065	384.6157226562501	1094.680297851563	-847.2542724609377	-387.2726135253907	772.0102539062502	-1114.7109375	-381.4923400878907	754.6647338867189	-901.5852050781252	-508.2334899902345	895.2690429687502	-1000.704833984375	-531.1815795898439	873.3509521484377	-1028.38623046875	-526.8741455078126	869.591735839844	-971.559265136719	-427.6028442382814	674.0815429687501	-1193.978881835938	-353.1676635742188	632.4893188476564	-1196.243530273438	-316.2192077636719	661.3006591796876	-1178.221069335938	-341.9845581054688	571.8879394531251	-1189.025390625	-246.6338195800782	450.8340454101564	-1161.83154296875	-219.7293548583985	463.0137939453126	-1052.22314453125	-232.9775543212891	319.0847167968751	-1069.222778320313	-278.1173400878907	263.8618164062501	-1120.982666015625	-246.1892700195313	265.0393981933594	-1086.359375	-284.4815368652344	207.4334564208985	-1037.984985351563	-381.1070251464844	102.4205017089844	-1065.388671875	-346.3054504394532	124.4886093139649	-989.0672607421877	-440.7323303222657	97.30756378173831	-1009.58642578125	-239.224105834961	56.86791610717775	-997.0008544921877	-234.1167449951172	49.8072967529297	-1035.311767578125	-259.1865539550782	41.52304840087891	-1083.571899414063	-448.7427673339845	535.8419799804689	-824.250915527344	-403.2029418945314	484.0758361816407	-823.270935058594	-370.6076660156251	488.5065917968751	-834.2161254882815	-427.0736083984376	404.2446899414064	-840.155700683594	-427.604705810547	364.7130126953126	-851.311706542969	-408.4678039550782	355.6288146972657	-967.653747558594	-529.7125244140626	303.0204467773438	-893.8756103515627	-614.3536376953126	370.8237915039063	-883.3532714843752	-614.1105346679689	325.0848083496094	-894.5418090820315	-651.2570800781251	313.4894409179688	-939.488708496094	-794.2605590820315	369.2497558593751	-932.036804199219	-761.6689453125001	351.6333923339844	-1009.780334472656	-803.3270263671877	430.9015502929689	-975.3533935546877	-829.496520996094	233.3795471191407	-1026.251098632813	-838.402526855469	221.1457672119141	-982.6955566406252	-868.4402465820315	245.9335327148438	-933.523620605469	
